<?xml version="1.0" encoding="UTF-8" standalone="no"?>
<!-- Created with Inkscape (http://www.inkscape.org/) -->

<svg
   xmlns:dc="http://purl.org/dc/elements/1.1/"
   xmlns:cc="http://creativecommons.org/ns#"
   xmlns:rdf="http://www.w3.org/1999/02/22-rdf-syntax-ns#"
   xmlns:svg="http://www.w3.org/2000/svg"
   xmlns="http://www.w3.org/2000/svg"
   xmlns:sodipodi="http://sodipodi.sourceforge.net/DTD/sodipodi-0.dtd"
   xmlns:inkscape="http://www.inkscape.org/namespaces/inkscape"
   width="115.5246mm"
   height="95.428955mm"
   viewBox="0 0 409.33915 338.1341"
   id="svg5469"
   version="1.1"
   inkscape:version="0.91 r13725"
   sodipodi:docname="fix-platte.svg">
  <defs
     id="defs5471" />
  <sodipodi:namedview
     id="base"
     pagecolor="#ffffff"
     bordercolor="#666666"
     borderopacity="1.0"
     inkscape:pageopacity="0.0"
     inkscape:pageshadow="2"
     inkscape:zoom="1.6682457"
     inkscape:cx="174.30892"
     inkscape:cy="98.668528"
     inkscape:document-units="mm"
     inkscape:current-layer="layer1"
     showgrid="false"
     inkscape:window-width="1600"
     inkscape:window-height="836"
     inkscape:window-x="0"
     inkscape:window-y="27"
     inkscape:window-maximized="1"
     fit-margin-top="0"
     fit-margin-left="0"
     fit-margin-right="0"
     fit-margin-bottom="0" />
  <metadata
     id="metadata5474">
    <rdf:RDF>
      <cc:Work
         rdf:about="">
        <dc:format>image/svg+xml</dc:format>
        <dc:type
           rdf:resource="http://purl.org/dc/dcmitype/StillImage" />
        <dc:title></dc:title>
      </cc:Work>
    </rdf:RDF>
  </metadata>
  <g
     inkscape:label="Layer 1"
     inkscape:groupmode="layer"
     id="layer1"
     transform="translate(-191.75032,-352.20692)">
    <path
       inkscape:connector-curvature="0"
       style="opacity:1;fill:none;fill-opacity:1;stroke:#000000;stroke-width:1;stroke-miterlimit:4;stroke-dasharray:none"
       d="m 398.38675,427.71782 40.74807,0 0,53.14964 -40.74806,0 z"
       id="rect6019" />
    <path
       inkscape:connector-curvature="0"
       style="opacity:1;fill:none;fill-opacity:1;stroke:#000000;stroke-width:1;stroke-miterlimit:4;stroke-dasharray:none"
       d="m 263.99288,543.88332 40.74807,0 0,53.14965 -40.74807,0 z"
       id="rect6019-6" />
    <path
       inkscape:connector-curvature="0"
       style="opacity:1;fill:none;fill-opacity:1;stroke:#000000;stroke-width:1;stroke-miterlimit:4;stroke-dasharray:none"
       d="m 398.38675,543.88332 40.74807,0 0,53.14965 -40.74806,0 z"
       id="rect6019-7" />
    <path
       inkscape:connector-curvature="0"
       style="opacity:1;fill:none;fill-opacity:1;stroke:#000000;stroke-width:1;stroke-miterlimit:4;stroke-dasharray:none"
       d="m 263.99288,427.71782 40.74807,0 0,53.14964 -40.74807,0 z"
       id="rect6019-5" />
    <path
       inkscape:connector-curvature="0"
       style="opacity:1;fill:none;fill-opacity:1;stroke:#000000;stroke-width:0.75656891;stroke-miterlimit:4;stroke-dasharray:none"
       d="m 363.58714,512.37538 a 12.023298,12.023287 0 0 1 -12.0233,12.0233 12.023298,12.023287 0 0 1 -12.02328,-12.0233 12.023298,12.023287 0 0 1 12.02328,-12.02328 12.023298,12.023287 0 0 1 12.0233,12.02328 z"
       id="path6048" />
    <path
       sodipodi:nodetypes="ccccccccccccccccc"
       inkscape:connector-curvature="0"
       style="opacity:1;fill:none;fill-opacity:1;stroke:#ff0000;stroke-width:1.08302927;stroke-miterlimit:4;stroke-dasharray:none"
       d="m 192.29264,374.00871 -7.9e-4,21.25985 10.99274,0 0.002,255.11882 -10.99414,0 0,21.25976 318.89649,0 0,-21.25976 -11.34766,0 2.1e-4,-255.11882 11.34745,0 0,-21.25985 -11.34745,0 0,-20.54125 -296.55709,0 0,20.54125 z"
       id="rect6050" />
    <path
       style="opacity:1;fill:none;fill-opacity:1;stroke:#000000;stroke-width:0.86965537;stroke-miterlimit:4;stroke-dasharray:none"
       d="m 545.86189,352.64202 0,0 -12.5332,0 0,0 -19.40625,0 0,10.20117 10.29492,0 0,144.17188 -10.29492,0 0,9.89453 10.29492,0 0,144.17187 -10.29492,0 0,10.06055 10.2893,10e-4 0,18.76181 10.43336,0 0,-39.4155 11.21679,0 0,20.42517 -2,5.69496 2,6.20876 10.32617,0 0,-63.28007 -10.32617,0 0,0.004 -11.21679,0 0,-246.08789 11.21679,0 0,21.26367 10.32617,0 0,-42.07617 z"
       id="rect4185-5"
       inkscape:connector-curvature="0"
       sodipodi:nodetypes="ccccccccccccccccccccccccccccccccc" />
    <path
       style="opacity:1;fill:none;fill-opacity:1;stroke:#000000;stroke-width:0.86965537;stroke-miterlimit:4;stroke-dasharray:none"
       d="m 590.32847,352.64337 0,0 -12.5332,0 0,0 -19.40625,0 0,10.20117 10.29492,0 0,144.17188 -10.29492,0 0,9.89453 10.29492,0 0,144.17187 -10.29492,0 0,10.06055 10.2893,10e-4 0,18.76181 10.43336,0 0,-39.4155 11.21679,0 0,20.42517 -2,5.69496 2,6.20876 10.32617,0 0,-63.28007 -10.32617,0 0,0.004 -11.21679,0 0,-246.08789 11.21679,0 0,21.26367 10.32617,0 0,-42.07617 z"
       id="rect4185-5-3"
       inkscape:connector-curvature="0"
       sodipodi:nodetypes="ccccccccccccccccccccccccccccccccc" />
  </g>
</svg>
